<svg width="24" height="24" viewBox="0 0 24 24" fill="none" xmlns="http://www.w3.org/2000/svg">
<path fill-rule="evenodd" clip-rule="evenodd" d="M12 0C5.37258 0 0 5.37258 0 12C0 18.6274 5.37258 24 12 24C18.6274 24 24 18.6274 24 12C24 5.37258 18.6274 0 12 0ZM8.8001 16.8C7.91651 16.8 7.20012 16.0836 7.20012 15.2C7.20012 14.3164 7.91651 13.6 8.8001 13.6C9.68369 13.6 10.4001 14.3164 10.4001 15.2C10.4001 16.0836 9.68369 16.8 8.8001 16.8ZM18.4 16.8C18.4 10.6244 13.3757 5.59999 7.20012 5.59999V7.73319C12.1997 7.73319 16.2668 11.8004 16.2668 16.8H18.4ZM7.2 9.33321C11.3172 9.33321 14.6667 12.6828 14.6667 16.8H12.5335C12.5335 13.8592 10.1408 11.4668 7.2 11.4668V9.33321Z" fill="white"/>
</svg>
