<svg width="24" height="24" viewBox="0 0 24 24" fill="none" xmlns="http://www.w3.org/2000/svg">
<path d="M12.0216 0.0900879C5.40734 0.0900879 0.0438385 5.54404 0.0438385 12.2724C0.0438385 17.6549 3.47584 22.2214 8.23498 23.8323C8.83359 23.945 9.05336 23.568 9.05336 23.2462C9.05336 22.9557 9.04225 21.9961 9.0371 20.9781C5.70486 21.7151 5.00172 19.5407 5.00172 19.5407C4.45686 18.1326 3.67181 17.7582 3.67181 17.7582C2.58506 17.0021 3.75372 17.0176 3.75372 17.0176C4.9565 17.1034 5.58982 18.273 5.58982 18.273C6.65812 20.1355 8.39187 19.597 9.07538 19.2857C9.18288 18.4986 9.49329 17.9607 9.83584 17.6567C7.17541 17.3487 4.37871 16.3041 4.37871 11.6361C4.37871 10.306 4.84662 9.21928 5.61283 8.36613C5.48847 8.05909 5.07848 6.82023 5.72886 5.14218C5.72886 5.14218 6.73468 4.81476 9.02361 6.39093C9.97904 6.12101 11.0037 5.98564 12.0216 5.981C13.0395 5.98564 14.065 6.12101 15.0222 6.39093C17.3084 4.81476 18.3128 5.14218 18.3128 5.14218C18.9648 6.82023 18.5546 8.05909 18.4302 8.36613C19.1982 9.21928 19.6629 10.306 19.6629 11.6361C19.6629 16.3152 16.8609 17.3454 14.1937 17.647C14.6233 18.0251 15.0062 18.7665 15.0062 19.9031C15.0062 21.5329 14.9923 22.8448 14.9923 23.2462C14.9923 23.5704 15.2079 23.9503 15.815 23.8307C20.5716 22.218 23.9992 17.6531 23.9992 12.2724C23.9992 5.54404 18.6365 0.0900879 12.0216 0.0900879Z" fill="white"/>
<path d="M4.58044 17.5813C4.55406 17.642 4.46044 17.66 4.37515 17.6184C4.28827 17.5787 4.23948 17.4962 4.26765 17.4354C4.29343 17.3731 4.38725 17.356 4.47393 17.3973C4.561 17.4373 4.61059 17.5206 4.58044 17.5813Z" fill="white"/>
<path d="M5.06559 18.1315C5.00846 18.1854 4.89679 18.1603 4.82102 18.0752C4.74268 17.9903 4.728 17.8767 4.78592 17.822C4.84482 17.7682 4.95312 17.7934 5.03167 17.8783C5.11002 17.9643 5.12529 18.077 5.06559 18.1315Z" fill="white"/>
<path d="M5.53785 18.8332C5.46447 18.8851 5.34447 18.8364 5.27028 18.7281C5.19689 18.6198 5.19689 18.4899 5.27187 18.4378C5.34625 18.3858 5.46447 18.4326 5.53964 18.5401C5.61283 18.65 5.61283 18.7802 5.53785 18.8332Z" fill="white"/>
<path d="M6.18487 19.511C6.11921 19.5846 5.97938 19.5648 5.87703 19.4644C5.7723 19.3661 5.74315 19.2267 5.809 19.1531C5.87544 19.0792 6.01607 19.1 6.11921 19.1997C6.22315 19.2977 6.25488 19.4381 6.18487 19.511Z" fill="white"/>
<path d="M7.07743 19.9048C7.04847 20.0002 6.91379 20.0435 6.77812 20.003C6.64265 19.9612 6.55399 19.8495 6.58136 19.753C6.60953 19.657 6.7448 19.6118 6.88146 19.6552C7.01674 19.6968 7.1056 19.8077 7.07743 19.9048Z" fill="white"/>
<path d="M8.05765 19.9776C8.06102 20.0781 7.94598 20.1614 7.80357 20.163C7.66036 20.1664 7.54452 20.0851 7.54294 19.9863C7.54294 19.8848 7.6554 19.8023 7.79861 19.7999C7.94102 19.7971 8.05765 19.8777 8.05765 19.9776Z" fill="white"/>
<path d="M8.96985 19.8197C8.98691 19.9178 8.88794 20.0184 8.74651 20.0451C8.60747 20.0711 8.47875 20.0106 8.46109 19.9133C8.44384 19.8129 8.5446 19.7122 8.68344 19.6862C8.82506 19.6611 8.9518 19.7201 8.96985 19.8197Z" fill="white"/>
</svg>
