<svg width="24" height="24" viewBox="0 0 24 24" fill="none" xmlns="http://www.w3.org/2000/svg">
<path fill-rule="evenodd" clip-rule="evenodd" d="M12 0C5.37258 0 0 5.37258 0 12C0 18.6274 5.37258 24 12 24C18.6274 24 24 18.6274 24 12C24 5.37258 18.6274 0 12 0ZM11.6658 10.169L11.6406 9.75374C11.5651 8.67754 12.2282 7.69455 13.2774 7.31322C13.6635 7.17764 14.3182 7.16069 14.7463 7.27932C14.9142 7.33017 15.2331 7.49965 15.4598 7.65218L15.8711 7.93182L16.3243 7.78776C16.5761 7.7115 16.9119 7.58439 17.063 7.49965C17.2057 7.42338 17.3316 7.38101 17.3316 7.40643C17.3316 7.55049 17.021 8.04199 16.7608 8.31315C16.4083 8.69448 16.509 8.72838 17.2224 8.47416C17.6505 8.3301 17.6589 8.3301 17.575 8.49111C17.5246 8.57585 17.2644 8.87244 16.9874 9.14361C16.5174 9.60968 16.4922 9.66052 16.4922 10.0503C16.4922 10.652 16.2068 11.9061 15.9214 12.5925C15.3926 13.8806 14.2595 15.211 13.1263 15.8805C11.5315 16.8211 9.40786 17.0583 7.61999 16.5075C7.02404 16.3211 6 15.8466 6 15.7618C6 15.7364 6.31057 15.7025 6.68829 15.694C7.4773 15.6771 8.26631 15.4568 8.93781 15.0669L9.39108 14.7958L8.87066 14.6178C8.13201 14.3636 7.46891 13.7789 7.30103 13.2281C7.25067 13.0501 7.26746 13.0417 7.73751 13.0417L8.22434 13.0332L7.81305 12.8383C7.32621 12.5925 6.88134 12.1773 6.66311 11.7536C6.50362 11.4485 6.30218 10.6774 6.36093 10.6181C6.37772 10.5927 6.55399 10.6435 6.75544 10.7113C7.33461 10.9232 7.41015 10.8723 7.0744 10.5164C6.44487 9.87237 6.25181 8.91481 6.55399 8.00809L6.69668 7.60134L7.25067 8.15215C8.38383 9.26224 9.71843 9.92322 11.2461 10.1181L11.6658 10.169Z" fill="white"/>
</svg>
